<?xml version="1.0" encoding="UTF-8" standalone="no"?>
<!-- Created with Inkscape (http://www.inkscape.org/) -->

<svg
   xmlns:dc="http://purl.org/dc/elements/1.1/"
   xmlns:cc="http://creativecommons.org/ns#"
   xmlns:rdf="http://www.w3.org/1999/02/22-rdf-syntax-ns#"
   xmlns:svg="http://www.w3.org/2000/svg"
   xmlns="http://www.w3.org/2000/svg"
   xmlns:sodipodi="http://sodipodi.sourceforge.net/DTD/sodipodi-0.dtd"
   xmlns:inkscape="http://www.inkscape.org/namespaces/inkscape"
   width="100"
   height="40"
   id="svg2"
   version="1.1"
   inkscape:version="0.48.4 r9939"
   sodipodi:docname="hr.svg">
  <defs
     id="defs4" />
  <sodipodi:namedview
     id="base"
     pagecolor="#ffffff"
     bordercolor="#666666"
     borderopacity="1.0"
     inkscape:pageopacity="0.0"
     inkscape:pageshadow="2"
     inkscape:zoom="5.6568542"
     inkscape:cx="78.454366"
     inkscape:cy="30.054656"
     inkscape:document-units="px"
     inkscape:current-layer="layer1"
     showgrid="false"
     inkscape:showpageshadow="false"
     inkscape:window-width="1920"
     inkscape:window-height="1033"
     inkscape:window-x="0"
     inkscape:window-y="23"
     inkscape:window-maximized="1" />
  <metadata
     id="metadata7">
    <rdf:RDF>
      <cc:Work
         rdf:about="">
        <dc:format>image/svg+xml</dc:format>
        <dc:type
           rdf:resource="http://purl.org/dc/dcmitype/StillImage" />
        <dc:title></dc:title>
      </cc:Work>
    </rdf:RDF>
  </metadata>
  <g
     inkscape:label="Calque 1"
     inkscape:groupmode="layer"
     id="layer1"
     transform="translate(0,-1012.3622)">
    <g
       transform="matrix(0.99739331,0,0,1.0026135,-74.75,0.75)"
       style="font-size:15.98386669px;font-style:normal;font-variant:normal;font-weight:normal;font-stretch:normal;line-height:125%;letter-spacing:0px;word-spacing:0px;fill:#000000;fill-opacity:1;stroke:none;font-family:Courier New;-inkscape-font-specification:Courier New"
       id="text2985">
      <path
         sodipodi:nodetypes="ccccccscsssccccccccccccccssccscssccsccccsccccccsccccccssccsscsccccscccccc"
         d="m 163.55718,1032.179 c 0.26021,-0.1627 0.37313,-0.3289 0.56824,-0.5948 -0.0219,-0.035 0.0672,-0.1618 0.0672,-0.1618 0.007,-0.028 0.16277,-0.1253 0.14084,-0.16 0.0347,-0.022 -0.0131,-0.1356 -0.0131,-0.1356 -0.0108,-0.2089 0.0629,-0.3987 0.0802,-0.6011 0.004,-0.3381 -0.26037,-0.9871 -0.43393,-1.2619 -0.0219,-0.035 -0.10847,-0.1717 -0.10847,-0.1717 -0.0326,-0.052 -0.19092,-0.2639 -0.21263,-0.2983 -0.0219,-0.035 -0.0607,-0.058 -0.0933,-0.1093 -0.0326,-0.052 -0.0542,-0.086 -0.0759,-0.1202 -0.0219,-0.035 -0.0651,-0.103 -0.14967,-0.1221 -0.0107,-0.017 -0.30145,-0.1708 -0.34482,-0.2395 -0.0673,-0.03 -0.28427,-0.1817 -0.37977,-0.2178 -0.0393,-0.024 -0.3601,-0.1103 -0.46634,-0.1636 -0.11947,0 -0.60968,-0.122 -0.69415,-0.1409 -0.15853,-0.021 -0.36236,-0.037 -0.49906,-0.024 -0.0174,0.011 -0.12616,0.03 -0.14339,0.041 -0.27988,0.055 -0.51191,0.033 -0.76574,0.1672 -0.0174,0.011 -0.19086,0.1193 -0.20825,0.1302 l -0.0566,-0.013 c -0.028,-0.01 -0.42656,0.2985 -0.44795,0.2646 -0.29252,0.1982 -0.49724,0.3227 -0.78473,0.5485 l -0.2958,0.2215 c -0.0301,0.067 -0.36743,0.2179 -0.3959,0.2876 -0.052,0.033 -0.0413,0.05 0.002,0.1184 0.0326,0.052 0.12368,0.042 0.17569,0.01 0.0695,-0.043 0.28219,-0.128 0.35165,-0.1714 0.0107,0.017 0.05,0.041 0.05,0.041 0,0 0,0 0.0107,0.017 0.0868,0.1374 0.0109,0.5921 0.0109,0.7836 0.0107,0.017 0.14104,0.2233 0.1627,0.2576 0.0219,0.035 0.0543,0.086 0.0868,0.1374 0.10847,0.1717 0.23429,0.3326 0.47289,0.3272 0.0281,0.01 0.32979,-0.014 0.42738,-0.052 0.15414,-0.024 0.25157,-0.062 0.40776,-0.1593 0.0347,-0.022 0.1388,-0.087 0.1388,-0.087 0.0173,-0.011 0.21909,-0.3047 0.2907,-0.4213 -0.005,-0.046 0.0326,-0.1401 0.0326,-0.1401 0.024,-0.039 -0.0304,-0.1247 -0.0173,-0.1809 0.013,-0.2476 0.10624,-0.5215 0.34922,-0.6734 l 0.0174,-0.011 c 0.18417,-0.091 0.60532,-0.3064 0.62255,-0.3172 0.25367,-0.1349 0.66605,-0.057 0.91979,-10e-5 0.12369,0.042 0.46213,0.1183 0.47299,0.1355 0.0953,0.036 0.3796,0.2179 0.42298,0.2865 0,0 0.20821,0.2531 0.30815,0.3344 l 0.0219,0.035 c 0.0219,0.035 0.0955,0.2277 0.0715,0.2667 0.0219,0.035 0.0585,0.131 0.0694,0.1482 0,0 0.0977,0.1546 0.11933,0.1889 0,0 -0.002,0.073 -0.009,0.1011 0.002,0.1184 -0.0436,0.1229 -0.0131,0.2477 -0.024,0.039 -0.0217,0.1573 -0.0217,0.1573 -0.0933,0.4655 -0.22336,0.8343 -0.5878,1.0622 -0.052,0.033 -0.12152,0.076 -0.15625,0.098 -0.0347,0.022 -0.0868,0.054 -0.14328,0.041 -0.0566,-0.013 -0.30592,-0.024 -0.34064,0 -0.10214,-0.01 -0.19957,0.029 -0.27557,-0.091 -0.13014,-0.206 0.9024,-0.5641 0.53357,-1.148 -0.14099,-0.2232 -0.37974,-0.4093 -0.63569,-0.3931 -0.17559,-0.01 -0.55096,0.01 -0.58557,0.031 l -0.0868,0.054 c 0,0 -0.32748,0.516 -0.47501,0.7042 -0.0369,0.095 -0.0672,0.1617 -0.0585,0.2521 0.0219,0.035 0.0847,0.2106 0.10638,0.2449 0.0456,0.1871 0.024,0.3443 0.14329,0.5332 0.16276,0.2577 0.42297,0.095 0.54012,0.1654 l 0.0868,0.1374 c 0.11497,0.1437 0.38393,0.263 0.59441,0.2512 l 0.16067,-0.052 c 0.11947,0 0.22782,-0.023 0.33194,-0.088 0.27561,-0.1002 0.37973,-0.1653 0.60532,-0.3063"
         style="font-family:IM FELL FLOWERS 1;-inkscape-font-specification:IM FELL FLOWERS 1"
         id="path3145"
         inkscape:connector-curvature="0" />
      <path
         d="m 108.1396,1024.9223 c -0.48281,0 -0.77272,0.1274 -1.25563,0.3186 0,0.064 -0.22538,0.1593 -0.22538,0.1593 -0.0322,0.032 -0.32187,0.032 -0.32187,0.096 -0.0643,0 -0.0965,0.1912 -0.0965,0.1912 -0.16124,0.2868 -0.41868,0.478 -0.61179,0.7329 -0.28971,0.4461 -0.48311,1.5295 -0.48311,2.0393 0,0.064 0,0.3187 0,0.3187 0,0.096 0.0322,0.5098 0.0322,0.5735 0,0.064 0.0322,0.1275 0.0322,0.2231 0,0.096 0,0.1593 0,0.223 0,0.064 0,0.1912 0.0965,0.2868 0,0.032 0.25744,0.478 0.25744,0.6054 0.0643,0.096 0.22547,0.478 0.32217,0.6055 0.0322,0.064 0.38632,0.4461 0.48282,0.6054 0.16114,0.096 0.70849,0.6692 0.80499,0.7647 0.19341,0.1594 0.45085,0.3506 0.64405,0.4462 0.0322,0 0.19341,0.064 0.22538,0.064 0.41868,0.1593 0.70828,0.3824 1.15913,0.4143 0.0322,0 0.35414,0 0.38641,0 0,0 0.0643,0.064 0.0643,0.064 0.0322,0.032 0.12897,0.1912 0.12897,0.2549 -0.83725,0.3824 -1.67421,0.9241 -1.67421,1.8801 0,0.064 0,0.096 0,0.096 0,0.064 0.12887,0.4461 0.12887,0.5735 0.0643,0.2231 0.22547,0.5098 0.41858,0.6692 0.38641,0.2867 0.77282,0.7329 1.32007,0.7329 0,0 0.19341,0 0.25774,0 0.0322,-0.032 0.0322,-0.096 0.0322,-0.096 0,-0.064 0,-0.096 0,-0.1275 0,0 0,-0.096 0,-0.096 -0.0322,-0.096 -0.45085,-0.4143 -0.48301,-0.5098 -0.0965,-0.096 -0.0965,-0.2231 -0.0965,-0.3187 0,-0.478 0.74045,-1.0515 1.22357,-1.0515 0,0 0,0 0.0643,0 0.0322,0.032 0.64406,0.1912 0.77273,0.223 0,0 0.22547,0.064 0.22547,0.064 0.0322,0.032 0.48302,0.096 0.57952,0.096 0,0 0.0965,0 0.0965,0 0.57962,0 0.90149,-0.3505 0.90149,-0.9241 0,-0.3505 -0.25744,-0.6054 -0.41857,-0.8922 -0.0643,0 -0.0965,-0.1593 -0.0965,-0.1593 -0.0643,-0.032 -0.28991,-0.1275 -0.32197,-0.1275 l 0,-0.1274 c 0.0965,-0.064 0.51518,-0.255 0.61168,-0.3187 0.0965,0 0.0965,-0.032 0.0965,-0.1593 0,-0.096 -0.12887,-0.1593 -0.22537,-0.1593 -0.12897,0 -0.48291,-0.064 -0.61179,-0.064 0,-0.032 -0.0322,-0.096 -0.0322,-0.096 0,0 0,0 0,-0.032 0,-0.255 0.48311,-0.7967 0.64405,-1.0516 0,-0.032 0,-0.4142 0,-0.4779 0,-0.064 0,-0.1594 0,-0.255 0,-0.3186 -0.0322,-0.6372 -0.35414,-0.8284 -0.0322,-0.032 -0.45085,-0.255 -0.61179,-0.2868 -0.22547,-0.096 -0.38641,-0.1275 -0.67622,-0.1275 -0.0643,0 -0.25754,0 -0.25754,0 -0.0322,0 -0.54745,0.2231 -0.74066,0.3187 -0.0322,0.064 -0.16114,0.1593 -0.16114,0.1593 -0.0643,0.032 -0.0643,0.1912 -0.12897,0.2549 -0.22537,0.3186 -0.57951,0.6054 -1.03036,0.6054 0,0 -0.0322,0 -0.0322,0 -0.32188,-0.032 -1.06264,-0.096 -1.0946,-0.096 -0.45085,-0.032 -0.93396,-0.4779 -1.22367,-0.7647 -0.12887,-0.1593 -0.51529,-0.5417 -0.51529,-0.5736 -0.0965,-0.1275 -0.32187,-0.6054 -0.32187,-0.7329 0,0 -0.0643,-0.5098 -0.12897,-0.701 0,0 0,-0.064 0,-0.064 0,-0.064 0.0643,-0.3824 0.12897,-0.4143 0,-0.064 0.0322,-0.223 0.0322,-0.2549 0,0 0,-0.2868 0,-0.3505 0,0 0.0643,-0.096 0.0965,-0.1275 0.0965,-0.1593 0.16124,-0.1274 0.22547,-0.3186 0.0643,-0.032 0.16114,-0.1912 0.16114,-0.1912 0.51528,-0.5417 0.9982,-0.9241 1.67442,-0.9241 0.0965,0 0.22547,0 0.28991,0 0.0643,0 0.16114,0 0.22517,0.064 0.0643,0.064 0.38641,0.2868 0.45085,0.2868 0.12897,0.096 0.28991,0.1274 0.28991,0.3505 0,0.3823 -1.67442,0 -1.67442,1.0834 0,0.4142 0.16114,0.8603 0.51528,1.0515 0.22518,0.1593 0.74056,0.4461 0.80479,0.4461 l 0.16114,0 c 0,0 0.86923,-0.4142 1.22357,-0.5417 0.12897,-0.096 0.22528,-0.1593 0.28971,-0.2868 0,-0.064 0.0643,-0.3505 0.0643,-0.4142 0.0965,-0.2868 0.25744,-0.478 0.25744,-0.8285 0,-0.478 -0.48282,-0.478 -0.57952,-0.6691 0,0 0,-0.255 0,-0.255 -0.0322,-0.2867 -0.28971,-0.6691 -0.57962,-0.8284 0,0 -0.25744,-0.064 -0.25744,-0.064 -0.16114,-0.096 -0.32208,-0.1593 -0.51528,-0.1593 -0.45085,-0.096 -0.64406,-0.096 -1.06263,-0.096 m 6.63303,-6.4048 c -0.12887,0.1274 -0.70828,0.6691 -0.80499,0.8285 0,0 -0.0965,0.223 -0.16114,0.223 -0.38641,0.6055 -0.77272,1.0834 -1.22357,1.6251 0,0 -0.0965,0.1593 -0.12897,0.1912 -0.38631,0.7329 -0.48301,1.6251 -0.64395,2.4536 0,0 0,0.096 0,0.096 0,0.7647 0.25764,1.5613 0.48301,2.2942 0.0322,0 0.0965,0.096 0.0965,0.096 0.0965,0.096 0.51528,0.3824 0.57961,0.4143 -0.16124,0.9878 1.35224,2.0712 1.8998,2.6129 0,0 0.0322,0.1274 0.0322,0.1274 0,0 0.0643,0.064 0.0965,0.1275 0.32187,0.2549 0.64395,0.4142 0.96592,0.6691 0.19341,0.1912 1.57772,0.8285 1.57772,1.179 0,0.1275 -0.12897,0.1275 -0.32188,0.1912 0,0 -0.16124,0.032 -0.16124,0.096 -0.0643,0 -0.22537,0.1912 -0.22537,0.1912 -0.12897,0.064 -0.83726,0.4461 -1.03036,0.478 -0.0643,0.064 -0.38642,0.1593 -0.45085,0.1593 0,0 -0.19341,0 -0.19341,0 -0.25744,0.032 -0.45064,0.2868 -0.64385,0.4142 -0.0322,0 -0.28991,0.032 -0.28991,0.032 -0.0965,0.064 -0.57952,0.1911 -0.67622,0.223 0,0 0,0.064 0,0.064 0,0.032 0,0.096 0.0965,0.1593 0.0322,0 0.38641,0 0.41858,0 0.16114,0 0.51508,0 0.51508,0 0.12897,-0.064 0.9017,-0.2549 1.06264,-0.2868 0.32197,-0.2549 0.80499,-0.3505 1.1914,-0.6054 0.0643,0 0.64405,-0.4461 0.83716,-0.5417 0.0643,-0.032 0.22547,-0.1912 0.28971,-0.2549 0,0 0.1934,-0.1912 0.1934,-0.1912 0,0 0.0643,0 0.12897,0 0.19331,0 0.48282,0.3505 0.61179,0.4461 0.0643,0 0.57952,0.2549 0.61178,0.2549 0.0322,0.064 0.48282,0.3187 0.57952,0.3824 0.0643,0.064 0.70829,0.4142 0.80499,0.4461 0,0 0.0965,0.096 0.16114,0.1275 0,0 0.22548,0.064 0.25744,0.064 0,0 0.0965,0.032 0.16114,0.032 0.0643,0.1274 0.67612,0.6054 0.80499,0.701 0.0322,0 0.38641,0.2549 0.45065,0.2868 0.41868,0.3505 0.86943,0.9878 1.15934,1.4657 0.16113,0.255 0.51508,0.9241 0.74055,0.9241 0.0643,0 0.19341,-0.032 0.25764,-0.096 0,-0.096 0,-0.478 0,-0.5736 0,-0.1593 0,-0.5416 0,-0.5735 -0.0643,-0.2231 -0.16114,-0.9878 -0.16114,-1.1471 -0.0322,-0.032 -0.1934,-0.255 -0.25744,-0.2868 0,-0.096 -0.0322,-0.2231 -0.0322,-0.2868 0,-0.1275 0.0322,-0.223 0.0322,-0.4142 -0.0643,-0.255 -0.22547,-0.4143 -0.32217,-0.6692 -0.41858,-0.8285 -0.57952,-1.4658 -1.32008,-2.1031 0,0 -0.1934,-0.096 -0.1934,-0.1274 -0.0643,-0.064 -0.32208,-0.3187 -0.35415,-0.3505 -0.0643,-0.064 -0.16114,-0.1912 -0.16114,-0.2231 -0.0965,-0.064 -0.32187,-0.3186 -0.38631,-0.3824 -0.25754,-0.1911 -0.41868,0 -0.51518,-0.4142 0,0 0,-0.064 0,-0.064 0,0 0,-0.032 0,-0.096 0.61178,-0.4779 0.9982,-1.179 1.51328,-1.7525 0,-0.2868 0.38641,-1.2427 0.64405,-1.3702 0.0322,0 0.32208,0.1275 0.41858,0.1912 0,0 0.16114,0.1912 0.19341,0.2549 0,0 0.16114,0.032 0.16114,0.032 0,0.064 0.0965,0.4143 0.16114,0.4461 0,0.032 0.22547,0.4461 0.25774,0.5099 0,0.032 0.0643,0.1274 0.0643,0.1274 0.0643,0.1594 -0.0643,0.6055 0.25764,0.6055 0.16114,0 0.16114,-0.2549 0.16114,-0.3824 0,-0.478 -0.16114,-0.9559 -0.32207,-1.3383 -0.0322,-0.064 -0.0965,-0.2231 -0.0965,-0.2549 -0.0643,-0.2868 -0.0965,-0.6692 -0.28991,-0.9241 -0.1934,-0.3505 -0.2897,-0.5417 -0.64385,-0.7966 0,0 0,-0.032 0,-0.064 0,0 0,-0.064 0,-0.064 0,-0.032 0.16124,-0.3824 0.16124,-0.4462 0,-0.064 0.12887,-0.4779 0.12887,-0.5735 0,-0.064 0.16114,-0.4143 0.16114,-0.4143 0.32218,-1.1152 0.41868,-2.1986 0.57962,-3.3139 0,0 0,-0.1274 0,-0.223 0,-0.2231 -0.0965,-0.6373 -0.38641,-0.6373 -0.35415,0 -0.19341,0.5736 -0.54735,0.5736 0,0 -0.0965,0 -0.0965,0 -0.0643,0 -0.48302,-0.255 -0.57972,-0.2868 -0.16114,-0.064 -0.74056,-0.2231 -0.96593,-0.2231 0,0 -0.0322,0 -0.0322,0 -0.0643,0 -0.32188,0.064 -0.38631,0.064 -0.0643,0 -0.74056,0 -0.83706,0 -0.0643,0 -0.41858,0.1912 -0.45085,0.2549 -0.70849,0.2868 -1.32027,0.8922 -1.57771,1.5614 -0.0643,0.096 -0.19341,0.5098 -0.22537,0.5735 0.0322,0.1275 0.0643,0.1912 0.0643,0.3187 0,0.064 0,0.1274 0,0.223 0,0.032 0,0.064 0,0.1275 0,0.032 0.0965,0.4142 0.16114,0.478 0,0.096 0.0322,0.4461 0.0322,0.5098 0.0965,0.096 0.70828,0.6691 0.80499,0.7966 0.0322,0 0.28961,0.096 0.28961,0.1275 0.0643,0 0.22547,0.223 0.25764,0.223 0.0643,0.032 0.28971,0.2549 0.32197,0.2868 0.25765,0.1912 0.70849,0.2231 0.96593,0.3186 0.0322,0.064 0.25764,0.2231 0.28991,0.255 0.22538,0.1593 0.57952,0.223 0.80489,0.4461 0.0965,0.032 0.0965,0.3505 0.0965,0.4461 0,0.096 0,0.2549 0,0.2549 -0.0643,0.064 -0.16114,0.1593 -0.16114,0.223 -0.0643,0.064 -0.51509,0.7966 -0.54735,0.8285 0,0.064 -0.22538,0.4143 -0.28981,0.4461 0,0 -0.0643,0.064 -0.0643,0.1275 0,0 -0.12887,0.223 -0.12887,0.223 -0.0643,0.032 -0.38641,0.478 -0.45064,0.5417 -0.0322,0.064 -0.25765,0.478 -0.28991,0.5417 l -0.0643,0 c -0.0322,0 -0.51508,-0.2549 -0.74055,-0.3505 -0.0322,0 -0.28961,-0.2549 -0.35415,-0.2868 -0.0322,0 -0.25764,-0.096 -0.25764,-0.1593 -0.0643,0 -0.41858,-0.2868 -0.48281,-0.3505 -0.0965,-0.064 -0.77303,-0.3824 -0.86953,-0.4142 0,0 -0.22537,-0.2549 -0.22537,-0.3187 -0.0643,0 -0.22538,-0.032 -0.25765,-0.032 -0.0643,-0.064 -0.48291,-0.3824 -0.61178,-0.4461 0,-0.032 -0.28971,-0.1912 -0.35415,-0.1912 0,-0.064 -0.1934,-0.3186 -0.1934,-0.3186 0,0 -0.0965,-0.064 -0.0965,-0.064 l -1.28801,-1.7207 c -0.0322,-0.032 -0.19341,-0.3824 -0.22547,-0.4461 0,-0.064 -0.19341,-0.2868 -0.19341,-0.3186 -0.19331,-0.4461 -0.19331,-0.9241 -0.28961,-1.4021 0,-0.1593 -0.16124,-0.2549 -0.16124,-0.4779 0,0 0,-0.096 0,-0.096 0,0 0.16124,-0.1912 0.16124,-0.1912 0,-0.064 0.0322,-0.3187 0.0965,-0.3824 0,-0.064 0.0322,-0.2549 0.0322,-0.3187 0.16114,-0.3505 0.35414,-0.7647 0.48312,-1.1471 0.0643,-0.032 0.0965,-0.1593 0.0965,-0.1593 0.0643,-0.096 0.41858,-0.4461 0.48301,-0.5417 l 0,-0.2868 c -0.32207,0 -0.41858,0.096 -0.70849,0.1593 m -0.86922,5.9269 c 0.0643,0 0.38641,0.064 0.38641,0.1593 0,0.223 -0.86953,0.7329 -1.06263,0.7329 -0.0322,0 -0.0965,0 -0.0965,0 -0.0643,-0.032 -0.16114,-0.1912 -0.16114,-0.1912 0.22537,-0.2868 0.57951,-0.701 0.93386,-0.701 m 0.57952,1.0834 c 0.12897,0 0.32197,0 0.32197,0.1593 0,0.2868 -0.99819,0.9241 -1.12686,0.9241 -0.12898,0 -0.25775,-0.1912 -0.28991,-0.2868 0,0 0,-0.064 0,-0.064 0.16113,-0.3505 0.67622,-0.7329 1.0948,-0.7329 m -0.0965,1.4658 c 0.0322,0 0.0965,0 0.12887,0.064 l -0.45084,0.4461 c 0,0 0,-0.096 0,-0.096 0,-0.1594 0.0965,-0.4143 0.32197,-0.4143 m 0.61179,0.7011 c 0,0.096 -0.0322,0.1274 -0.12897,0.1274 0,0 -0.0643,0 -0.0965,0 0.0322,-0.032 0.12898,-0.1274 0.22548,-0.1274 m 0.70849,-0.6373 0,0.1593 c 0,0.032 -0.25764,0.2868 -0.35435,0.3186 0,0.032 -0.12897,0.096 -0.1934,0.096 0,0 -0.0322,0 -0.0322,0 0,0 -0.0643,0 -0.0643,0 0.16114,-0.223 0.38642,-0.4779 0.64406,-0.5735 m 0.99809,0.4779 c 0,0 0.0322,0 0.0965,0 0.0322,0 0.12897,0 0.12897,0.096 0,0.3505 -0.38641,0.5099 -0.64386,0.7329 0,0 -0.0643,0.096 -0.0643,0.1593 0,0 -0.12897,0 -0.16114,0 0,-0.096 0,-0.3505 0.0965,-0.4461 0.0643,-0.096 0.41858,-0.4461 0.54745,-0.5417 m 1.12697,0.7967 0,0.3823 c 0,0 -0.45085,0.5736 -0.64405,0.7648 -0.12897,0.1593 -0.28971,0.4142 -0.54735,0.4142 -0.0965,0 -0.0965,-0.1593 -0.0965,-0.2549 0,-0.096 0.25764,-0.4461 0.35434,-0.5736 0.0322,0 0.32198,-0.2867 0.32198,-0.3505 0.0643,-0.064 0.16114,-0.2549 0.16114,-0.2868 0.0322,-0.096 0.12887,-0.096 0.22537,-0.096 0.0643,0 0.16114,0 0.22547,0 m 0.93366,0.5417 c 0.12898,0 0.22548,0 0.22548,0.1912 0,0.1912 -0.22548,0.3824 -0.22548,0.6373 0,0.032 0,0.064 0,0.096 -0.12887,0 -0.54735,0.096 -0.74055,0.1593 0,0 -0.12887,0.032 -0.12887,0.032 0,0 0,0 0,0 0,0 -0.0643,0 -0.0643,0 0,0 -0.0322,-0.096 -0.0322,-0.1275 0,0 0,-0.064 0,-0.064 0,-0.064 0.0965,-0.3186 0.0965,-0.3505 0,-0.064 0.0643,-0.096 0.0643,-0.096 0.25764,-0.223 0.45085,-0.4779 0.80499,-0.4779 m 1.96413,0.8284 c 0,0.032 0,0.3187 0,0.3824 0,0 -0.0322,0.096 -0.0965,0.1275 0,0.064 -0.38641,0.5098 -0.48312,0.6373 -0.16114,0.1593 -0.35414,0.3186 -0.61178,0.3186 -0.22538,0 -0.41858,-0.064 -0.64375,-0.3186 0,0 0,0.032 0,0.032 0,0 0,0 0,-0.032 0.48281,0 0.57951,-0.3187 0.90139,-0.6373 0.0643,-0.032 0.25774,-0.1912 0.28991,-0.2231 0,0 0.22527,-0.032 0.22527,-0.032 0.16114,-0.096 0.16114,-0.2549 0.41858,-0.2549 m 0.0643,1.3064 c 0.0322,0 0.0965,0.032 0.0965,0.032 0,0 0,0.064 0,0.064 0,0.2549 -0.25764,0.4461 -0.45085,0.4461 0,-0.1274 0.0965,-0.5417 0.35414,-0.5417 m 0.9982,-0.2867 c 0,0 0.0322,0 0.0322,0 0,0.064 0.0643,0.1911 0.0643,0.1911 0,0.1912 -0.32217,0.6373 -0.51528,0.6373 0,-0.3823 0.0322,-0.6054 0.35415,-0.8285 0,0 0.0643,0 0.0643,0 m 1.25664,-11.3437 c 0.57952,0 0.64396,0.7647 0.74046,1.1152 0,0.1275 0.0643,0.5099 0.0643,0.6054 0,0 0,0.096 0,0.1275 0,0.2231 -0.12897,0.6054 -0.16124,0.7966 0,0.1594 -0.22537,1.0834 -0.28981,1.179 0,0.1593 -0.0965,0.1912 -0.2899,0.1912 0,0 -0.0643,0 -0.0643,0 -0.0643,0 -0.16124,-0.1912 -0.16124,-0.1912 -0.12887,-0.1593 -0.38631,-0.096 -0.48301,-0.2868 -0.0322,0 -0.0965,-0.223 -0.0965,-0.223 -0.32187,-0.8285 -0.74055,-0.8922 -0.74055,-1.9438 0,-0.5417 0.16124,-0.8603 0.57962,-1.0834 0.22537,-0.096 0.67622,-0.2867 0.67622,-0.2867 0.0322,0 0.16114,0 0.22547,0 m -0.28991,12.3634 c 0.0643,0 0.12887,0.096 0.12887,0.1593 0,0 0,0.096 0,0.1275 0,0 0,0.096 0,0.096 0,0.064 -0.16114,0.2231 -0.16114,0.2549 -0.0965,0.096 -0.32187,0.478 -0.57951,0.4461 0,0 -0.12898,-0.223 -0.16114,-0.2549 0,-0.096 0.12887,-0.096 0.16114,-0.1912 0.12887,-0.1274 0.35434,-0.6373 0.61178,-0.6373 m 2.89799,-6.4047 c -0.0322,0.1593 -0.12887,0.8284 -0.12887,0.9878 -0.0965,0.5417 -0.28971,0.924 -0.28971,1.4657 0,0.032 0,0.1594 0,0.255 0,0.2867 0.0322,0.6054 0.19341,0.6054 0.0322,0 0.0965,0 0.0965,-0.032 0,-0.096 0.0965,-0.7966 0.12887,-0.924 0,-0.064 0.22547,-0.3824 0.22547,-0.3824 0.12888,-0.3505 0.0322,-0.701 0.25744,-0.9878 0,0 0.22538,-0.096 0.22538,-0.096 0.0322,-0.064 0.12897,-0.3186 0.12897,-0.3186 0.0643,0 0.12887,-0.064 0.12887,-0.064 0.0965,-0.064 0.38641,-0.1912 0.41868,-0.1912 0,0 0.0643,0 0.0965,0 0.32218,0 0.41868,0.478 0.57962,0.6054 0.0322,0.064 0.35435,0.4461 0.41858,0.478 0,0.064 0.19341,0.4142 0.19341,0.478 0.0643,0.032 0.28991,0.2868 0.35434,0.3186 0.0322,0.032 0.25744,0.1593 0.25744,0.1593 0,0.032 0,0.2868 0,0.2868 0.0322,0.2549 0.22548,0.3187 0.28991,0.5417 0,0 0,0.032 0,0.032 0,0.064 -0.0643,0.1594 -0.0965,0.1594 0,0.064 -0.32188,0.3505 -0.35414,0.3505 -0.0643,0.064 -0.32188,0.478 -0.32188,0.5417 -0.12897,0.032 -0.70849,0.6691 -0.74076,0.7647 -0.0643,0 -0.16114,0.2549 -0.16114,0.3187 0,0 -0.16114,0.1593 -0.16114,0.1593 -0.0322,0.064 -0.1934,0.4142 -0.1934,0.4461 -0.16114,0.2549 -0.19341,0.478 -0.38641,0.7329 0,0 -0.25765,0.3186 -0.32188,0.3505 0,0.032 -0.19341,0.4461 -0.22547,0.6054 -0.25765,0.478 0,1.0197 -0.28981,1.4021 0,0 -0.0965,0.032 -0.0965,0.032 -0.22547,0.5417 -0.22547,1.2427 -0.51538,1.657 l 0,1.2108 c 0,0.064 0.0965,0.1593 0.16124,0.1593 0,0 0,0 0.0322,0 0.32218,0 0.25764,-0.6691 0.32218,-0.8284 0,-0.064 0.0965,-0.2231 0.12887,-0.2868 0,-0.032 0.12897,-0.1275 0.12897,-0.1275 0.22537,-0.4142 0.32208,-0.7966 0.61178,-1.0834 0.25765,-0.2868 0.54735,-0.478 0.805,-0.7329 0.67622,-0.6373 1.3845,-1.2108 2.15723,-1.6569 0,0 0.16124,-0.064 0.16124,-0.064 0.35414,-0.2868 0.64375,-0.5417 1.03016,-0.7647 0.32208,-0.3187 0.80499,-0.478 1.12707,-0.7329 l 0.45085,0 c 0.64385,0.4779 1.2878,0.9559 2.02836,1.2427 0,0 0.12897,0 0.12897,0 0.0643,0.064 0.25744,0.1593 0.32187,0.1593 0.0322,0.032 0.41858,0.1912 0.48312,0.2549 0.51508,0.1594 0.9981,0.2549 1.41678,0.4143 0.0965,0 0.45054,0.1593 0.45054,0.3186 0,0 0,0.032 0,0.032 -0.19331,0.3505 -0.35414,0.6372 -0.45054,0.9878 0,0.064 0,0.095 0,0.095 0,0 0,0.064 0,0.064 0.0643,0.096 0.16113,0.3187 0.16113,0.3824 0.25745,0.2868 0.54735,0.5736 0.93367,0.5736 0.45084,0 0.90169,-0.096 1.25583,-0.2231 0.0322,0 0.22538,-0.064 0.22538,-0.064 0.0322,-0.032 0.0643,-0.032 0.12897,-0.032 0.0965,0 0.22537,0.032 0.22537,0.032 0.0322,-0.032 0.38641,-0.1593 0.41868,-0.1593 0,0 0.0643,0 0.0965,0 0,0 0.0643,0 0.0643,0 0.51508,0.2231 0.57952,0.4461 0.74056,0.956 0,0 0.0643,0.096 0.0643,0.1274 0,0.032 -0.0322,0.1275 -0.0322,0.2231 0,0.1911 0.0322,0.4142 0.25764,0.4142 0,0 0.0643,0 0.0643,0 0.0643,0 0.25764,-0.1593 0.28981,-0.1593 0.0965,-0.032 0.35414,-0.3505 0.35414,-0.3505 0.0965,-0.1275 0.0965,-0.5099 0.0965,-0.6692 0,-0.5417 0,-1.1152 -0.54734,-1.402 0,0 -0.38652,-0.1593 -0.38652,-0.1593 -0.0643,0 -0.0965,-0.064 -0.0965,-0.064 0,-0.032 -0.12897,-0.2549 -0.16114,-0.2549 0,-0.064 -0.19341,-0.2231 -0.28991,-0.2549 -0.19341,-0.096 -0.64405,-0.1594 -0.64405,-0.4461 0,-0.032 0,-0.096 0,-0.096 0.48311,-0.1275 0.93396,-0.1275 1.38461,-0.255 0.25764,-0.032 0.28981,-0.1274 0.57972,-0.2868 0,0 0.25744,-0.064 0.32187,-0.064 0.0322,-0.032 0.22548,-0.1275 0.25764,-0.1275 0,-0.032 0.35415,-0.3505 0.41868,-0.3505 0.0643,-0.032 0.32188,-0.1912 0.38631,-0.2549 0,0 0.0965,-0.096 0.16114,-0.1275 0,0 0.0965,-0.1912 0.12898,-0.1912 0,-0.032 0.25764,-0.1911 0.25764,-0.2549 0.16114,-0.096 0.22547,-0.2549 0.2897,-0.3824 0.0322,-0.096 0.35435,-0.5416 0.41858,-0.6054 0.12898,-0.2549 0.19341,-0.5735 0.35435,-0.8603 0,-0.2231 0.12897,-1.179 0.12897,-1.3702 0,0 0,-0.096 0,-0.1593 0,-0.7648 -0.35414,-1.6888 -0.80499,-2.3261 -0.16114,-0.1912 -0.38641,-0.3187 -0.54735,-0.478 0,-0.064 -0.0322,-0.096 -0.0322,-0.096 -0.64395,-0.5098 -1.22357,-0.6692 -1.99629,-0.7966 -0.0322,0 -0.0322,0 -0.0322,0 -0.0322,0 -0.19341,0.064 -0.22537,0.064 -0.0643,0.032 -0.64406,0.032 -0.70829,0.064 -0.0322,0 -0.51528,0.2549 -0.61179,0.3505 -0.25764,0.2549 -0.48311,0.478 -0.61178,0.7966 -0.12897,0.1912 -0.32218,0.6692 -0.32218,0.6692 l 0,1.2427 c 0,0 0.16114,0.2549 0.19341,0.3824 0.35434,0.478 0.80499,0.8603 1.41678,0.8603 0.2899,0 0.57961,-0.032 0.77292,-0.2549 0.12897,-0.1593 0.48291,-0.6054 0.54735,-0.6691 0.0643,-0.064 0.0643,-0.1594 0.0643,-0.2231 0,-0.064 0,-0.1912 0,-0.2549 0,-0.4461 -0.25744,-0.7329 -0.51508,-1.0834 -0.0965,-0.1275 -0.25764,-0.1593 -0.41858,-0.1593 -0.0643,0 -0.0643,0 -0.12897,0 -0.32208,0 -0.57952,0.1593 -0.90159,0.1593 -0.12897,0 -0.19341,-0.1593 -0.19341,-0.2231 0,-0.3505 0.57952,-0.4461 0.77272,-0.6054 0.0322,0 0.12897,-0.096 0.12897,-0.096 0.0322,-0.064 0.19331,-0.096 0.25745,-0.096 0.0322,0 0.48301,-0.032 0.51528,-0.032 0.0643,-0.064 0.22537,-0.096 0.25764,-0.096 0,0 0.0643,0 0.0643,0 0.0322,0 0.83726,0.223 0.86943,0.2549 0,0 0.12897,0.2231 0.16124,0.2231 0,0.032 0.0965,0.1274 0.16114,0.1274 0,0.064 0.32208,0.2231 0.32208,0.2549 0,0 0,0.2231 0,0.2868 0,0 0.16114,0.096 0.16114,0.1593 0,0 0.0322,0.1912 0.0322,0.1912 0.0643,0.064 0.25744,0.2868 0.25744,0.3187 0.12898,0.4779 0.12898,0.7647 0.12898,1.1471 0,0.478 -0.12898,0.8285 -0.38642,1.2427 0,0 -0.0322,0.1593 -0.0322,0.1593 0,0.064 -0.0322,0.096 -0.0322,0.1275 0,0.064 0.0322,0.1275 0.0322,0.1912 0,0.032 -0.0322,0.064 -0.0643,0.1275 -0.0322,0 -0.28971,0.2549 -0.38641,0.3505 -0.19331,0.1274 -0.54725,0.5417 -0.77272,0.6373 -0.45085,0.1911 -0.93367,0.223 -1.44895,0.223 -0.0643,0 -0.28971,0 -0.38641,-0.032 -0.16114,-0.064 -0.83726,-0.3824 -0.9982,-0.478 -0.51508,-0.3186 -0.99819,-0.7329 -1.60998,-0.7329 -0.0643,0 -0.25744,0 -0.25744,0.032 -0.16114,0 -0.74066,0.1593 -0.9017,0.223 -0.48281,0.3187 -0.48301,0.8922 -0.48301,1.4658 0,0.032 0,0.1593 0,0.1593 0,0.064 0.19341,0.6054 0.19341,0.6692 0,0.032 0,0.1274 0,0.1274 -0.0643,0 -0.28991,0.064 -0.41868,0.064 -0.0643,0 -0.0643,-0.032 -0.0643,-0.032 -0.48301,-0.064 -0.83716,-0.4143 -1.32007,-0.6373 -0.0643,-0.032 -0.35435,-0.1275 -0.35435,-0.1275 -0.12887,-0.064 -0.74045,-0.3824 -0.80499,-0.4461 -0.32187,-0.1593 -0.48281,-0.1593 -0.74045,-0.3824 0,-0.032 0,-0.032 0,-0.032 0,0 0,-0.064 0,-0.064 0.0643,-0.032 0.25764,-0.2549 0.32187,-0.2868 0,0 0.19341,-0.096 0.19341,-0.1593 0.28971,-0.1912 0.96593,-0.7329 1.03016,-0.7966 0.0322,-0.032 0.35435,-0.3505 0.35435,-0.4142 0.28971,-0.2868 0.74055,-0.5417 0.93376,-0.9241 0.0322,0 0.0965,-0.096 0.0965,-0.1593 0.12897,-0.2549 0.48312,-0.2868 0.64406,-0.5099 0.0322,-0.064 0.12897,-0.5098 0.12897,-0.5735 0,0 0.25744,-0.2231 0.28961,-0.2868 0.0643,-0.032 0.22547,-0.2231 0.22547,-0.2868 0.0322,0 0.12887,-0.3186 0.12887,-0.4142 0,0 0,0 0,0 0,0 0,-0.064 0,-0.064 0,-0.064 -0.0965,-0.2549 -0.12887,-0.3186 0.51508,-0.096 0.48301,-0.2231 0.57952,-0.6692 0,-0.032 0.0965,-0.1912 0.0965,-0.2549 0,-0.032 -0.0322,-0.1593 -0.0322,-0.2868 0,-0.064 0,-0.096 0.0322,-0.1275 0,0 0.0965,-0.2549 0.0965,-0.2549 0.0643,-0.096 0.16114,-0.4142 0.16114,-0.4142 0,0 0.0322,-0.2231 0.0322,-0.2549 0,-1.3065 -0.38641,-2.135 -0.96593,-3.2502 0,0 -0.0643,-0.1912 -0.0643,-0.1912 -0.1934,-0.3505 -0.57961,-0.6373 -0.80499,-0.8922 -0.41858,-0.4142 -0.61178,-0.8604 -1.32007,-0.8604 0,0.255 0.19341,0.8285 0.28961,1.1153 0,0 0.16124,0.2231 0.16124,0.2231 0.0965,0.4142 0.0965,0.8922 0.0965,1.2427 0,0.1593 0,0.6373 0,0.7329 -0.0643,0.064 -0.0965,0.2549 -0.0965,0.3186 0,0.032 -0.16124,0.3505 -0.16124,0.4142 -0.12887,0.5417 -0.16114,1.2428 -0.57952,1.657 0,0.064 -0.38641,0.3505 -0.38641,0.4142 -0.0643,0.032 -0.19331,0.478 -0.25744,0.5099 0,0 -0.0322,0.1593 -0.0322,0.1593 -0.41868,0.3824 -0.86953,0.6692 -1.25584,1.0515 -0.54735,0.4143 -0.96593,0.8285 -1.54554,1.2427 -0.19341,0.096 -0.70849,0.5418 -0.77273,0.5418 -0.1934,0.1274 -0.28991,0.3823 -0.54755,0.3823 -0.28971,0 -0.35414,-0.2868 -0.61178,-0.3823 0,0 -0.25744,-0.064 -0.32188,-0.064 0,-0.064 0,-0.3187 0,-0.3187 0,-0.223 -0.48291,-0.7966 -0.64405,-0.9878 0,0 -0.0965,-0.2549 -0.12897,-0.2549 -0.0643,-0.096 -0.41858,-0.5735 -0.48302,-0.6691 0,0 0,-0.064 0,-0.096 0,-0.2868 0.22537,-0.3824 0.41858,-0.5417 0.0965,-0.064 0.48312,-0.4461 0.54755,-0.5099 0.0965,-0.064 0.70829,-0.6373 0.74056,-0.7328 0.2896,-0.2231 0.48281,-0.2231 0.74045,-0.5736 0.0643,-0.032 0.22548,-0.478 0.28991,-0.5098 0.0965,-0.2231 0.19341,-0.4143 0.28971,-0.6055 0.12887,-0.3505 0.12887,-0.701 0.22537,-1.0196 0,0 0.0322,-0.096 0.0322,-0.1594 0,0 0.0322,-0.096 0.0322,-0.1593 0,-0.478 -0.57952,-0.8603 -0.96593,-1.1152 -0.35435,-0.1912 -0.83716,-0.2868 -1.25574,-0.4462 -0.0965,0 -0.57962,0 -0.67632,0 -0.19341,0 -0.67602,0 -0.74046,0 -0.0322,0 -0.48311,0.064 -0.57961,0.1275 -0.25765,0.032 -0.41858,0.2868 -0.67622,0.2868 -0.0322,0 -0.0643,0 -0.12898,-0.096 0,-0.096 -0.0322,-0.5098 -0.0322,-0.6054 -0.0643,-0.064 -0.0965,-0.1275 -0.16124,-0.1912 -0.28981,0.1275 -0.28981,0.9559 -0.28981,1.2746 0,0.064 0,0.2868 0,0.4142 0,0 0.0322,0.064 0.0322,0.1275 0,0 0.0643,0 0.0643,0 0.38631,0 0.48281,-0.5417 0.64395,-0.6054 0.19341,-0.096 0.22548,-0.1275 0.45065,-0.1275 0.0322,0 0.83726,0.2868 0.86943,0.3505 0.0643,0.032 0.28991,0.3824 0.28991,0.4142 0.0965,0.096 0.41837,0.3187 0.41837,0.5099 0,0.1911 -0.35414,0.7329 -0.54725,0.7329 -0.0965,0 -0.38641,-0.5099 -0.38641,-0.5736 -0.0643,0 -0.12897,-0.2549 -0.12897,-0.3187 0,0 -0.0965,-0.032 -0.12887,-0.032 0,0 0,0 -0.0643,0 -0.12898,0 -0.22548,0.096 -0.22548,0.2549 0,0.2231 0.12897,0.4143 0.12897,0.6692 l -0.45064,0 -0.38662,-0.4461 c 0.0322,-0.032 0.0322,-0.064 0.0322,-0.096 0,-0.096 -0.16114,-0.064 -0.16114,-0.1912 0,-0.032 0,-0.064 0,-0.064 0,-0.064 0,-0.1274 0,-0.1911 0,-0.096 -0.0322,-0.1912 -0.16124,-0.1912 -0.12887,0 -0.16114,0.1912 -0.16114,0.3823 0,0.064 0,0.1275 0,0.1594 0,0.3186 0,0.5417 0.0643,0.924 0.0965,0.1275 0.48311,0.8285 0.57962,0.956 0.0965,0.2549 0.16114,0.3505 0.16114,0.5735 0,0.4143 -0.38642,0.8285 -0.48302,1.2109 -0.0965,0.2868 -0.0965,0.5098 -0.32198,0.7647 m 2.89779,5.5126 c 0.16124,0 0.25774,0.2549 0.25774,0.4461 0,0 -0.0322,0.064 -0.0322,0.064 -0.16114,0 -0.32188,-0.3187 -0.32188,-0.4461 0,0 0.0322,-0.064 0.0322,-0.064 0,0 0.0643,0 0.0643,0 m 1.22367,-0.7647 c 0.28981,0 0.28981,0.1911 0.45085,0.3505 0.12887,0.1274 0.28961,0.1274 0.28961,0.3505 0,0.1275 -0.28961,0.1593 -0.38631,0.1593 -0.32198,0 -0.67612,-0.3824 -0.67612,-0.6054 0,-0.1593 0.16114,-0.2549 0.32197,-0.2549 m 0.96593,-1.0197 c 0,0 0.0643,0 0.0643,0 0.0643,0.064 0.38641,0.2868 0.41858,0.3824 0.12897,0.032 0.35414,0.3505 0.35414,0.3505 0,0 0,0.096 0,0.1593 0,0.2549 -0.22537,0.2549 -0.54735,0.2549 -0.0322,0 -0.12887,0 -0.12887,0 -0.0322,0 -0.19341,-0.1912 -0.25744,-0.223 -0.0965,-0.032 -0.35434,-0.032 -0.35434,-0.2549 0,-0.2868 0.0643,-0.6692 0.45084,-0.6692 m 1.0948,-0.701 c 0.25744,0 0.54735,0.2868 0.70829,0.5098 0.0965,0.032 0.22547,0.2549 0.22547,0.2549 0,0 0.0322,0.478 0.0322,0.6692 0,0 0,0.064 0,0.064 0,0.032 0,0.096 0,0.096 -0.0322,-0.064 -0.32187,-0.3187 -0.41858,-0.3506 -0.16114,-0.223 -0.16114,-0.4142 -0.35414,-0.5416 -0.0643,0 -0.22537,-0.096 -0.28991,-0.1594 -0.0322,-0.032 -0.16114,-0.3505 -0.16114,-0.3824 0.12897,-0.1593 0.12897,-0.1593 0.25764,-0.1593 m 2.02856,0.1912 c -0.0643,0.096 -0.0965,0.096 -0.16114,0.096 -0.16113,0 -0.83695,-0.3186 -0.90149,-0.4142 -0.0322,-0.1912 -0.0965,-0.4143 -0.0965,-0.5417 0.25764,0 0.9981,0.6373 1.15923,0.8603 m -0.74065,1.179 c 0,0.032 -0.0643,0.032 -0.0643,0.032 -0.0643,0 -0.0965,0 -0.0965,-0.032 0,-0.032 0.0322,-0.064 0.0965,-0.064 0,0 0.0643,0.032 0.0643,0.064 m 0.57952,-2.9953 c 0.0965,0 0.16113,0.064 0.32217,0.1275 0.0965,0.032 0.0965,0.1912 0.12887,0.2868 0.16114,0.3186 0.54735,0.1593 0.54735,0.5735 0,0.1594 -0.0965,0.2231 -0.25744,0.2231 -0.12897,0 -0.32217,-0.064 -0.41858,-0.1593 -0.0643,-0.064 -0.22547,-0.3187 -0.25764,-0.3187 -0.12897,-0.223 -0.28971,-0.2549 -0.28971,-0.4779 0,-0.1275 0.0643,-0.255 0.22518,-0.255 m 0.74075,-0.6691 c 0.28971,0 0.48282,0.2868 0.70829,0.2868 0.0643,0 0.0643,0 0.12887,-0.032 l 0.35435,0.3824 c 0.0643,0 0.0643,0 0.0643,0.032 0,0.064 -0.0965,0.1275 -0.16124,0.1275 -0.0643,0 -0.0965,0 -0.0965,0 0,0 -0.22547,-0.1275 -0.22547,-0.1275 -0.0643,0 -0.0965,0 -0.19341,0 -0.12887,0 -0.28981,0 -0.38631,-0.1274 0,0 -0.0322,-0.096 -0.0965,-0.1275 0,0 -0.22547,-0.2549 -0.22547,-0.2549 0,-0.064 -0.0643,-0.064 -0.0643,-0.064 0,0 0.0643,-0.032 0.0643,-0.032 0,0 0.0643,-0.064 0.12897,-0.064 m 0.93366,-0.7329 c 0.22548,0.1912 0.64406,0.1912 0.80499,0.4461 -0.0643,0 -0.22537,0 -0.2899,0 -0.0965,0 -0.28961,0 -0.28961,0 -0.12897,-0.032 -0.32218,-0.2549 -0.32218,-0.2867 l 0.0965,-0.1594 m 0.22548,-0.7647 c 0.0322,0 0.12887,-0.064 0.1934,-0.064 0.0322,0 0.16114,0.064 0.16114,0.064 0.0643,0 0.41858,0.1912 0.51508,0.2868 0,0.064 0,0.064 0,0.064 -0.0322,0.032 -0.16113,0.1275 -0.16113,0.1275 0,0 -0.0322,0 -0.0322,0 -0.25744,0 -0.57952,-0.1912 -0.74056,-0.2868 0,0 -0.0643,0 -0.0643,-0.064 0,0 0.0643,0 0.0643,0 0,-0.032 0.0643,-0.1275 0.0643,-0.1275 m 1.1913,-0.8922 c 0,0.1593 -0.12887,0.2549 -0.25764,0.2549 -0.0643,-0.064 -0.25764,-0.1593 -0.32188,-0.1593 0,-0.032 -0.1934,-0.096 -0.1934,-0.096 -0.0643,0 -0.12898,-0.064 -0.12898,-0.064 0,-0.032 -0.0643,-0.2549 -0.0643,-0.3186 0.19341,0 0.96593,0.064 0.96593,0.3823"
         style="font-family:IM FELL FLOWERS 1;-inkscape-font-specification:IM FELL FLOWERS 1"
         id="path3066"
         inkscape:connector-curvature="0" />
      <path
         inkscape:connector-curvature="0"
         id="path3117"
         style="font-family:IM FELL FLOWERS 1;-inkscape-font-specification:IM FELL FLOWERS 1"
         d="m 85.712674,1032.179 c -0.260205,-0.1627 -0.373125,-0.3289 -0.568238,-0.5948 0.02193,-0.035 -0.06723,-0.1618 -0.06723,-0.1618 -0.0067,-0.028 -0.162771,-0.1253 -0.140842,-0.16 -0.03466,-0.022 0.01309,-0.1356 0.01309,-0.1356 0.01077,-0.2089 -0.06289,-0.3987 -0.08021,-0.6011 -0.0042,-0.3381 0.26037,-0.9871 0.433931,-1.2619 0.02193,-0.035 0.108469,-0.1717 0.108469,-0.1717 0.03263,-0.052 0.190919,-0.2639 0.212634,-0.2983 0.02193,-0.035 0.06068,-0.058 0.09331,-0.1093 0.03263,-0.052 0.05423,-0.086 0.0759,-0.1202 0.02193,-0.035 0.06509,-0.103 0.149669,-0.1221 0.0107,-0.017 0.301447,-0.1708 0.344824,-0.2395 0.06728,-0.03 0.284271,-0.1817 0.379764,-0.2178 0.03928,-0.024 0.3601,-0.1103 0.466343,-0.1636 0.11947,0 0.60968,-0.122 0.694154,-0.1409 0.158523,-0.021 0.362359,-0.037 0.499055,-0.024 0.01736,0.011 0.126165,0.03 0.143395,0.041 0.279876,0.055 0.511902,0.033 0.76574,0.1672 0.01736,0.011 0.190859,0.1193 0.20825,0.1302 l 0.05659,-0.013 c 0.02805,-0.01 0.426554,0.2985 0.447948,0.2646 0.292517,0.1982 0.497239,0.3227 0.784725,0.5485 l 0.295807,0.2215 c 0.03008,0.067 0.367426,0.2179 0.3959,0.2876 0.052,0.033 0.04131,0.05 -0.0022,0.1184 -0.03263,0.052 -0.123689,0.042 -0.175695,0.01 -0.06951,-0.043 -0.282187,-0.128 -0.351645,-0.1714 -0.0107,0.017 -0.04998,0.041 -0.04998,0.041 0,0 0,0 -0.0107,0.017 -0.08681,0.1374 -0.01086,0.5921 -0.01088,0.7836 -0.0107,0.017 -0.141042,0.2233 -0.162704,0.2576 -0.02193,0.035 -0.05429,0.086 -0.08681,0.1374 -0.108469,0.1717 -0.234295,0.3326 -0.472889,0.3272 -0.02805,0.01 -0.329787,-0.014 -0.427382,-0.052 -0.15414,-0.024 -0.251574,-0.062 -0.407763,-0.1593 -0.03466,-0.022 -0.138798,-0.087 -0.138798,-0.087 -0.01735,-0.011 -0.219092,-0.3047 -0.2907,-0.4213 0.0046,-0.046 -0.03261,-0.1401 -0.03261,-0.1401 -0.02396,-0.039 0.03044,-0.1247 0.0173,-0.1809 -0.01299,-0.2476 -0.10624,-0.5215 -0.349219,-0.6734 l -0.01736,-0.011 c -0.18417,-0.091 -0.605322,-0.3064 -0.622547,-0.3172 -0.253677,-0.1349 -0.666049,-0.057 -0.919796,-10e-5 -0.123689,0.042 -0.462127,0.1183 -0.472985,0.1355 -0.09533,0.036 -0.379601,0.2179 -0.422978,0.2865 0,0 -0.208216,0.2531 -0.308158,0.3344 l -0.02193,0.035 c -0.02193,0.035 -0.09553,0.2277 -0.07154,0.2667 -0.02193,0.035 -0.05855,0.131 -0.0694,0.1482 0,0 -0.09766,0.1546 -0.119326,0.1889 0,0 0.002,0.073 0.0087,0.1011 -0.0022,0.1184 0.04358,0.1229 0.01305,0.2477 0.02396,0.039 0.02175,0.1573 0.02175,0.1573 0.09329,0.4655 0.223365,0.8343 0.587805,1.0622 0.052,0.033 0.121514,0.076 0.156243,0.098 0.03466,0.022 0.08684,0.054 0.143282,0.041 0.05658,-0.013 0.305916,-0.024 0.340645,0 0.102131,-0.01 0.199567,0.029 0.27557,-0.091 0.130131,-0.206 -0.902408,-0.5641 -0.533571,-1.148 0.140988,-0.2232 0.379732,-0.4093 0.635684,-0.3931 0.175592,-0.01 0.550961,0.01 0.585576,0.031 l 0.08684,0.054 c 0,0 0.327472,0.516 0.475009,0.7042 0.03688,0.095 0.06718,0.1617 0.05852,0.2521 -0.02193,0.035 -0.08467,0.2106 -0.106386,0.2449 -0.04561,0.1871 -0.02396,0.3443 -0.143286,0.5332 -0.162757,0.2577 -0.422966,0.095 -0.54012,0.1654 l -0.08681,0.1374 c -0.114969,0.1437 -0.383931,0.263 -0.594409,0.2512 l -0.160673,-0.052 c -0.119471,0 -0.227816,-0.023 -0.331939,-0.088 -0.275606,-0.1002 -0.379734,-0.1653 -0.605316,-0.3063"
         sodipodi:nodetypes="ccccccscsssccccccccccccccssccscssccsccccsccccccsccccccssccsscsccccscccccc" />
    </g>
    <path
       style="fill:#000000;stroke:none"
       d="m 31.47796,1032.4452 c 0,0 -1.59377,0.8438 -1.96875,1.1562 -0.37498,0.3125 -0.99996,0.5937 -1.1406,0.6406 -0.14064,0.047 -0.45315,-0.078 -0.60942,0.078 -0.1562,0.1562 -1.03119,0.2187 -1.32809,0.2656 -0.2969,0.047 -0.73435,-0.047 -0.95312,0.078 -0.21878,0.125 -0.67186,0.1719 -0.875,0.2188 -0.20314,0.047 -1.640663,-0.047 -1.749974,-10e-5 -0.10939,0.047 -0.390648,-0.078 -0.734422,-0.078 -0.343775,10e-5 -0.906229,-0.125 -1.437506,-0.2812 -0.5312,-0.1563 -0.687456,-0.2813 -0.874967,-0.2813 -0.187511,0 -0.34376,-0.1562 -0.562525,-0.25 -0.218474,-0.094 -0.640653,-0.2031 -0.906214,-0.3125 -0.265638,-0.1094 -0.593778,-0.2187 -0.734408,-0.2343 -0.140353,-0.016 -0.437515,-0.25 -0.593764,-0.3438 -0.156115,-0.094 -0.499798,-0.4064 -0.328077,-0.047 0.171863,0.3594 0.672013,0.7342 0.968616,0.9064 0.296596,0.1721 0.515644,0.1406 0.859404,0.3906 0.343541,0.2502 1.296855,0.5469 1.640622,0.6094 0.343767,0.062 0.828114,-0.078 1.390639,0.078 0.562461,0.1563 1.968719,0.3125 2.281239,0.2812 0.312527,-0.031 0.624967,0.094 1.078117,0.1407 0.45315,0.047 0.875,-0.125 1.34378,-0.1876 0.46871,-0.062 0.95312,-0.1093 1.34372,-0.2187 0.39065,-0.1094 1.06252,-0.375 1.40623,-0.5312 0.34378,-0.1563 1.07816,-0.5782 1.34375,-0.7813 0.26566,-0.2031 0.92191,-0.6406 1.28125,-0.9062 0.35943,-0.2657 0.2969,-0.1094 0.5157,-0.3907 0.2187,-0.2812 0.17184,-0.4843 -0.6563,10e-5 z"
       id="path3132"
       inkscape:connector-curvature="0" />
    <path
       inkscape:connector-curvature="0"
       id="path3158"
       d="m 67.90197,1032.4452 c 0,0 1.59377,0.8438 1.96875,1.1562 0.37498,0.3125 0.99996,0.5937 1.1406,0.6406 0.14064,0.047 0.45315,-0.078 0.60942,0.078 0.1562,0.1562 1.03119,0.2187 1.32809,0.2656 0.2969,0.047 0.73435,-0.047 0.95312,0.078 0.21878,0.125 0.67186,0.1719 0.875,0.2188 0.20314,0.047 1.64066,-0.047 1.74997,-10e-5 0.10939,0.047 0.39065,-0.078 0.73443,-0.078 0.34377,10e-5 0.90622,-0.125 1.4375,-0.2812 0.5312,-0.1563 0.68746,-0.2813 0.87497,-0.2813 0.18751,0 0.34376,-0.1562 0.56252,-0.25 0.21848,-0.094 0.64066,-0.2031 0.90622,-0.3125 0.26564,-0.1094 0.59378,-0.2187 0.73441,-0.2343 0.14035,-0.016 0.43751,-0.25 0.59376,-0.3438 0.15611,-0.094 0.4998,-0.4064 0.32808,-0.047 -0.17187,0.3594 -0.67202,0.7342 -0.96862,0.9064 -0.2966,0.1721 -0.51564,0.1406 -0.8594,0.3906 -0.34354,0.2502 -1.29686,0.5469 -1.64063,0.6094 -0.34376,0.062 -0.82811,-0.078 -1.39063,0.078 -0.56247,0.1563 -1.96872,0.3125 -2.28124,0.2812 -0.31253,-0.031 -0.62497,0.094 -1.07812,0.1407 -0.45315,0.047 -0.875,-0.125 -1.34378,-0.1876 -0.46871,-0.062 -0.95312,-0.1093 -1.34372,-0.2187 -0.39065,-0.1094 -1.06252,-0.375 -1.40623,-0.5312 -0.34378,-0.1563 -1.07816,-0.5782 -1.34375,-0.7813 -0.26566,-0.2031 -0.92191,-0.6406 -1.28125,-0.9062 -0.35943,-0.2657 -0.2969,-0.1094 -0.5157,-0.3907 -0.2187,-0.2812 -0.17184,-0.4843 0.6563,10e-5 z"
       style="fill:#000000;stroke:none" />
    <path
       style="fill:#000000;stroke:none"
       d="m 7.9991455,1033.5582 c 0,0 0.5303301,-0.088 0.3977475,0.3978 -0.1325825,0.4861 -0.044194,0.3977 -0.4861359,0.5303 -0.4419417,0.1326 -0.3535534,-0.3535 -0.3977476,-0.7071 -0.044194,-0.3536 0.3977476,-0.221 0.486136,-0.221 z"
       id="path3160"
       inkscape:connector-curvature="0" />
    <path
       inkscape:connector-curvature="0"
       id="path3173"
       d="m 6.7701593,1033.6744 c 0,0 0.4750483,0.2516 0.07502,0.5575 -0.40021,0.3061 -0.2763205,0.2894 -0.7081357,0.1268 -0.4318152,-0.1626 -0.066745,-0.4955 0.1125509,-0.8034 0.1792965,-0.308 0.4502842,0.065 0.5205645,0.1191 z"
       style="fill:#000000;stroke:none" />
    <path
       inkscape:connector-curvature="0"
       id="path3187"
       d="m 92.624146,1033.5582 c 0,0 0.53033,-0.088 0.397747,0.3978 -0.132582,0.4861 -0.04419,0.3977 -0.486136,0.5303 -0.441941,0.1326 -0.353553,-0.3535 -0.397747,-0.7071 -0.04419,-0.3536 0.397747,-0.221 0.486136,-0.221 z"
       style="fill:#000000;stroke:none" />
    <path
       style="fill:#000000;stroke:none"
       d="m 91.395159,1033.6744 c 0,0 0.475049,0.2516 0.07502,0.5575 -0.40021,0.3061 -0.27632,0.2894 -0.708135,0.1268 -0.431815,-0.1626 -0.06674,-0.4955 0.112551,-0.8034 0.179296,-0.308 0.450284,0.065 0.520564,0.1191 z"
       id="path3189"
       inkscape:connector-curvature="0" />
  </g>
</svg>
